<svg id="container" width="765.0234375" xmlns="http://www.w3.org/2000/svg" class="classDiagram" height="570" viewBox="0 0 765.0234375 570" role="graphics-document document" aria-roledescription="class"><style>#container{font-family:"trebuchet ms",verdana,arial,sans-serif;font-size:16px;fill:#333;}@keyframes edge-animation-frame{from{stroke-dashoffset:0;}}@keyframes dash{to{stroke-dashoffset:0;}}#container .edge-animation-slow{stroke-dasharray:9,5!important;stroke-dashoffset:900;animation:dash 50s linear infinite;stroke-linecap:round;}#container .edge-animation-fast{stroke-dasharray:9,5!important;stroke-dashoffset:900;animation:dash 20s linear infinite;stroke-linecap:round;}#container .error-icon{fill:#552222;}#container .error-text{fill:#552222;stroke:#552222;}#container .edge-thickness-normal{stroke-width:1px;}#container .edge-thickness-thick{stroke-width:3.5px;}#container .edge-pattern-solid{stroke-dasharray:0;}#container .edge-thickness-invisible{stroke-width:0;fill:none;}#container .edge-pattern-dashed{stroke-dasharray:3;}#container .edge-pattern-dotted{stroke-dasharray:2;}#container .marker{fill:#333333;stroke:#333333;}#container .marker.cross{stroke:#333333;}#container svg{font-family:"trebuchet ms",verdana,arial,sans-serif;font-size:16px;}#container p{margin:0;}#container g.classGroup text{fill:#9370DB;stroke:none;font-family:"trebuchet ms",verdana,arial,sans-serif;font-size:10px;}#container g.classGroup text .title{font-weight:bolder;}#container .nodeLabel,#container .edgeLabel{color:#131300;}#container .edgeLabel .label rect{fill:#ECECFF;}#container .label text{fill:#131300;}#container .labelBkg{background:#ECECFF;}#container .edgeLabel .label span{background:#ECECFF;}#container .classTitle{font-weight:bolder;}#container .node rect,#container .node circle,#container .node ellipse,#container .node polygon,#container .node path{fill:#ECECFF;stroke:#9370DB;stroke-width:1px;}#container .divider{stroke:#9370DB;stroke-width:1;}#container g.clickable{cursor:pointer;}#container g.classGroup rect{fill:#ECECFF;stroke:#9370DB;}#container g.classGroup line{stroke:#9370DB;stroke-width:1;}#container .classLabel .box{stroke:none;stroke-width:0;fill:#ECECFF;opacity:0.5;}#container .classLabel .label{fill:#9370DB;font-size:10px;}#container .relation{stroke:#333333;stroke-width:1;fill:none;}#container .dashed-line{stroke-dasharray:3;}#container .dotted-line{stroke-dasharray:1 2;}#container #compositionStart,#container .composition{fill:#333333!important;stroke:#333333!important;stroke-width:1;}#container #compositionEnd,#container .composition{fill:#333333!important;stroke:#333333!important;stroke-width:1;}#container #dependencyStart,#container .dependency{fill:#333333!important;stroke:#333333!important;stroke-width:1;}#container #dependencyStart,#container .dependency{fill:#333333!important;stroke:#333333!important;stroke-width:1;}#container #extensionStart,#container .extension{fill:transparent!important;stroke:#333333!important;stroke-width:1;}#container #extensionEnd,#container .extension{fill:transparent!important;stroke:#333333!important;stroke-width:1;}#container #aggregationStart,#container .aggregation{fill:transparent!important;stroke:#333333!important;stroke-width:1;}#container #aggregationEnd,#container .aggregation{fill:transparent!important;stroke:#333333!important;stroke-width:1;}#container #lollipopStart,#container .lollipop{fill:#ECECFF!important;stroke:#333333!important;stroke-width:1;}#container #lollipopEnd,#container .lollipop{fill:#ECECFF!important;stroke:#333333!important;stroke-width:1;}#container .edgeTerminals{font-size:11px;line-height:initial;}#container .classTitleText{text-anchor:middle;font-size:18px;fill:#333;}#container .label-icon{display:inline-block;height:1em;overflow:visible;vertical-align:-0.125em;}#container .node .label-icon path{fill:currentColor;stroke:revert;stroke-width:revert;}#container :root{--mermaid-font-family:"trebuchet ms",verdana,arial,sans-serif;}</style><g><defs><marker id="container_class-aggregationStart" class="marker aggregation class" refX="18" refY="7" markerWidth="190" markerHeight="240" orient="auto"><path d="M 18,7 L9,13 L1,7 L9,1 Z"></path></marker></defs><defs><marker id="container_class-aggregationEnd" class="marker aggregation class" refX="1" refY="7" markerWidth="20" markerHeight="28" orient="auto"><path d="M 18,7 L9,13 L1,7 L9,1 Z"></path></marker></defs><defs><marker id="container_class-extensionStart" class="marker extension class" refX="18" refY="7" markerWidth="190" markerHeight="240" orient="auto"><path d="M 1,7 L18,13 V 1 Z"></path></marker></defs><defs><marker id="container_class-extensionEnd" class="marker extension class" refX="1" refY="7" markerWidth="20" markerHeight="28" orient="auto"><path d="M 1,1 V 13 L18,7 Z"></path></marker></defs><defs><marker id="container_class-compositionStart" class="marker composition class" refX="18" refY="7" markerWidth="190" markerHeight="240" orient="auto"><path d="M 18,7 L9,13 L1,7 L9,1 Z"></path></marker></defs><defs><marker id="container_class-compositionEnd" class="marker composition class" refX="1" refY="7" markerWidth="20" markerHeight="28" orient="auto"><path d="M 18,7 L9,13 L1,7 L9,1 Z"></path></marker></defs><defs><marker id="container_class-dependencyStart" class="marker dependency class" refX="6" refY="7" markerWidth="190" markerHeight="240" orient="auto"><path d="M 5,7 L9,13 L1,7 L9,1 Z"></path></marker></defs><defs><marker id="container_class-dependencyEnd" class="marker dependency class" refX="13" refY="7" markerWidth="20" markerHeight="28" orient="auto"><path d="M 18,7 L9,13 L14,7 L9,1 Z"></path></marker></defs><defs><marker id="container_class-lollipopStart" class="marker lollipop class" refX="13" refY="7" markerWidth="190" markerHeight="240" orient="auto"><circle stroke="black" fill="transparent" cx="7" cy="7" r="6"></circle></marker></defs><defs><marker id="container_class-lollipopEnd" class="marker lollipop class" refX="1" refY="7" markerWidth="190" markerHeight="240" orient="auto"><circle stroke="black" fill="transparent" cx="7" cy="7" r="6"></circle></marker></defs><g class="root"><g class="clusters"></g><g class="edgePaths"><path d="M264.438,307.583L259.763,311.819C255.087,316.055,245.737,324.528,241.062,334.93C236.387,345.333,236.387,357.667,236.387,363.833L236.387,370" id="id_DiagramGenerator_CodeExtractor_1" class="edge-thickness-normal edge-pattern-solid relation" style=";;;" data-edge="true" data-et="edge" data-id="id_DiagramGenerator_CodeExtractor_1" data-points="W3sieCI6Mjc3LjIyMDc4OTQ1MDk2NjksInkiOjI5Nn0seyJ4IjoyMzYuMzg2NzE4NzUsInkiOjMzM30seyJ4IjoyMzYuMzg2NzE4NzUsInkiOjM3MH1d" marker-start="url(#container_class-compositionStart)"></path><path d="M607.847,307.583L612.522,311.819C617.198,316.055,626.548,324.528,631.223,340.43C635.898,356.333,635.898,379.667,635.898,391.333L635.898,403" id="id_DiagramGenerator_OpenAI_2" class="edge-thickness-normal edge-pattern-solid relation" style=";;;" data-edge="true" data-et="edge" data-id="id_DiagramGenerator_OpenAI_2" data-points="W3sieCI6NTk1LjA2NDM2Njc5OTAzMzEsInkiOjI5Nn0seyJ4Ijo2MzUuODk4NDM3NSwieSI6MzMzfSx7IngiOjYzNS44OTg0Mzc1LCJ5Ijo0MDN9XQ==" marker-start="url(#container_class-compositionStart)"></path></g><g class="edgeLabels"><g class="edgeLabel" transform="translate(236.38671875, 333)"><g class="label" data-id="id_DiagramGenerator_CodeExtractor_1" transform="translate(-16.4921875, -12)"><foreignObject width="32.984375" height="24"><div xmlns="http://www.w3.org/1999/xhtml" class="labelBkg" style="display: table-cell; white-space: nowrap; line-height: 1.5; max-width: 200px; text-align: center;"><span class="edgeLabel"><p>uses</p></span></div></foreignObject></g></g><g class="edgeLabel" transform="translate(635.8984375, 333)"><g class="label" data-id="id_DiagramGenerator_OpenAI_2" transform="translate(-16.4921875, -12)"><foreignObject width="32.984375" height="24"><div xmlns="http://www.w3.org/1999/xhtml" class="labelBkg" style="display: table-cell; white-space: nowrap; line-height: 1.5; max-width: 200px; text-align: center;"><span class="edgeLabel"><p>uses</p></span></div></foreignObject></g></g></g><g class="nodes"><g class="node default" id="classId-DiagramGenerator-0" transform="translate(436.142578125, 152)"><g class="basic label-container"><path d="M-253.76953125 -144 L253.76953125 -144 L253.76953125 144 L-253.76953125 144" stroke="none" stroke-width="0" fill="#ECECFF" style=""></path><path d="M-253.76953125 -144 C-63.8734730731756 -144, 126.0225851036488 -144, 253.76953125 -144 M-253.76953125 -144 C-81.87562543398536 -144, 90.01828038202927 -144, 253.76953125 -144 M253.76953125 -144 C253.76953125 -42.386546035644386, 253.76953125 59.22690792871123, 253.76953125 144 M253.76953125 -144 C253.76953125 -40.4266779784695, 253.76953125 63.146644043061, 253.76953125 144 M253.76953125 144 C93.28873036318578 144, -67.19207052362844 144, -253.76953125 144 M253.76953125 144 C50.88048502987891 144, -152.00856119024218 144, -253.76953125 144 M-253.76953125 144 C-253.76953125 73.267193310966, -253.76953125 2.5343866219319864, -253.76953125 -144 M-253.76953125 144 C-253.76953125 66.90333499516649, -253.76953125 -10.193330009667022, -253.76953125 -144" stroke="#9370DB" stroke-width="1.3" fill="none" stroke-dasharray="0 0" style=""></path></g><g class="annotation-group text" transform="translate(0, -120)"></g><g class="label-group text" transform="translate(-66.9921875, -120)"><g class="label" style="font-weight: bolder" transform="translate(0,-12)"><foreignObject width="133.984375" height="24"><div xmlns="http://www.w3.org/1999/xhtml" style="display: table-cell; white-space: nowrap; line-height: 1.5; max-width: 183px; text-align: center;"><span class="nodeLabel markdown-node-label" style=""><p>DiagramGenerator</p></span></div></foreignObject></g></g><g class="members-group text" transform="translate(-241.76953125, -72)"><g class="label" style="" transform="translate(0,-12)"><foreignObject width="166.09375" height="24"><div xmlns="http://www.w3.org/1999/xhtml" style="display: table-cell; white-space: nowrap; line-height: 1.5; max-width: 263px; text-align: center;"><span class="nodeLabel markdown-node-label" style=""><p>+Optional&lt;str&gt; api_key</p></span></div></foreignObject></g><g class="label" style="" transform="translate(0,12)"><foreignObject width="77.6875" height="24"><div xmlns="http://www.w3.org/1999/xhtml" style="display: table-cell; white-space: nowrap; line-height: 1.5; max-width: 135px; text-align: center;"><span class="nodeLabel markdown-node-label" style=""><p>+str model</p></span></div></foreignObject></g><g class="label" style="" transform="translate(0,36)"><foreignObject width="178.765625" height="24"><div xmlns="http://www.w3.org/1999/xhtml" style="display: table-cell; white-space: nowrap; line-height: 1.5; max-width: 237px; text-align: center;"><span class="nodeLabel markdown-node-label" style=""><p>+CodeExtractor extractor</p></span></div></foreignObject></g><g class="label" style="" transform="translate(0,60)"><foreignObject width="105.515625" height="24"><div xmlns="http://www.w3.org/1999/xhtml" style="display: table-cell; white-space: nowrap; line-height: 1.5; max-width: 163px; text-align: center;"><span class="nodeLabel markdown-node-label" style=""><p>+OpenAI client</p></span></div></foreignObject></g></g><g class="methods-group text" transform="translate(-241.76953125, 48)"><g class="label" style="" transform="translate(0,-12)"><foreignObject width="357.09375" height="24"><div xmlns="http://www.w3.org/1999/xhtml" style="display: table-cell; white-space: nowrap; line-height: 1.5; max-width: 415px; text-align: center;"><span class="nodeLabel markdown-node-label" style=""><p>+generate_class_diagram(directory_path: str) : str</p></span></div></foreignObject></g><g class="label" style="" transform="translate(0,12)"><foreignObject width="410.421875" height="24"><div xmlns="http://www.w3.org/1999/xhtml" style="display: table-cell; white-space: nowrap; line-height: 1.5; max-width: 469px; text-align: center;"><span class="nodeLabel markdown-node-label" style=""><p>+generate_dependency_diagram(directory_path: str) : str</p></span></div></foreignObject></g><g class="label" style="" transform="translate(0,36)"><foreignObject width="347.234375" height="24"><div xmlns="http://www.w3.org/1999/xhtml" style="display: table-cell; white-space: nowrap; line-height: 1.5; max-width: 405px; text-align: center;"><span class="nodeLabel markdown-node-label" style=""><p>+generate_call_diagram(directory_path: str) : str</p></span></div></foreignObject></g><g class="label" style="" transform="translate(0,60)"><foreignObject width="416.546875" height="24"><div xmlns="http://www.w3.org/1999/xhtml" style="display: table-cell; white-space: nowrap; line-height: 1.5; max-width: 475px; text-align: center;"><span class="nodeLabel markdown-node-label" style=""><p>-_call_llm(system_prompt: str, codebase_context: str) : str</p></span></div></foreignObject></g></g><g class="divider" style=""><path d="M-253.76953125 -96 C-113.44971850414476 -96, 26.87009424171049 -96, 253.76953125 -96 M-253.76953125 -96 C-107.30306232783857 -96, 39.16340659432285 -96, 253.76953125 -96" stroke="#9370DB" stroke-width="1.3" fill="none" stroke-dasharray="0 0" style=""></path></g><g class="divider" style=""><path d="M-253.76953125 24 C-91.82687514907445 24, 70.1157809518511 24, 253.76953125 24 M-253.76953125 24 C-54.707478903778224 24, 144.35457344244355 24, 253.76953125 24" stroke="#9370DB" stroke-width="1.3" fill="none" stroke-dasharray="0 0" style=""></path></g></g><g class="node default" id="classId-CodeExtractor-1" transform="translate(236.38671875, 466)"><g class="basic label-container"><path d="M-228.38671875 -96 L228.38671875 -96 L228.38671875 96 L-228.38671875 96" stroke="none" stroke-width="0" fill="#ECECFF" style=""></path><path d="M-228.38671875 -96 C-86.33289658368722 -96, 55.72092558262557 -96, 228.38671875 -96 M-228.38671875 -96 C-134.55314078392178 -96, -40.71956281784358 -96, 228.38671875 -96 M228.38671875 -96 C228.38671875 -20.625259961176923, 228.38671875 54.749480077646155, 228.38671875 96 M228.38671875 -96 C228.38671875 -56.22934830865748, 228.38671875 -16.458696617314956, 228.38671875 96 M228.38671875 96 C58.180769119443966 96, -112.02518051111207 96, -228.38671875 96 M228.38671875 96 C109.32401729602397 96, -9.738684157952065 96, -228.38671875 96 M-228.38671875 96 C-228.38671875 37.66383008433735, -228.38671875 -20.672339831325303, -228.38671875 -96 M-228.38671875 96 C-228.38671875 43.337275260752676, -228.38671875 -9.325449478494647, -228.38671875 -96" stroke="#9370DB" stroke-width="1.3" fill="none" stroke-dasharray="0 0" style=""></path></g><g class="annotation-group text" transform="translate(0, -72)"></g><g class="label-group text" transform="translate(-51.6953125, -72)"><g class="label" style="font-weight: bolder" transform="translate(0,-12)"><foreignObject width="103.390625" height="24"><div xmlns="http://www.w3.org/1999/xhtml" style="display: table-cell; white-space: nowrap; line-height: 1.5; max-width: 152px; text-align: center;"><span class="nodeLabel markdown-node-label" style=""><p>CodeExtractor</p></span></div></foreignObject></g></g><g class="members-group text" transform="translate(-216.38671875, -24)"><g class="label" style="" transform="translate(0,-12)"><foreignObject width="213.03125" height="24"><div xmlns="http://www.w3.org/1999/xhtml" style="display: table-cell; white-space: nowrap; line-height: 1.5; max-width: 310px; text-align: center;"><span class="nodeLabel markdown-node-label" style=""><p>+List&lt;str&gt; include_extensions</p></span></div></foreignObject></g><g class="label" style="" transform="translate(0,12)"><foreignObject width="164.6875" height="24"><div xmlns="http://www.w3.org/1999/xhtml" style="display: table-cell; white-space: nowrap; line-height: 1.5; max-width: 261px; text-align: center;"><span class="nodeLabel markdown-node-label" style=""><p>+List&lt;str&gt; exclude_dirs</p></span></div></foreignObject></g></g><g class="methods-group text" transform="translate(-216.38671875, 48)"><g class="label" style="" transform="translate(0,-12)"><foreignObject width="381.078125" height="24"><div xmlns="http://www.w3.org/1999/xhtml" style="display: table-cell; white-space: nowrap; line-height: 1.5; max-width: 478px; text-align: center;"><span class="nodeLabel markdown-node-label" style=""><p>+extract_codebase(directory_path: str) : Dict&lt;str, str&gt;</p></span></div></foreignObject></g><g class="label" style="" transform="translate(0,12)"><foreignObject width="361.34375" height="24"><div xmlns="http://www.w3.org/1999/xhtml" style="display: table-cell; white-space: nowrap; line-height: 1.5; max-width: 459px; text-align: center;"><span class="nodeLabel markdown-node-label" style=""><p>+format_for_llm(extracted_files: Dict&lt;str, str&gt;) : str</p></span></div></foreignObject></g></g><g class="divider" style=""><path d="M-228.38671875 -48 C-113.28475134333605 -48, 1.8172160633278907 -48, 228.38671875 -48 M-228.38671875 -48 C-121.84029780464314 -48, -15.293876859286286 -48, 228.38671875 -48" stroke="#9370DB" stroke-width="1.3" fill="none" stroke-dasharray="0 0" style=""></path></g><g class="divider" style=""><path d="M-228.38671875 24 C-102.22359406481769 24, 23.93953062036462 24, 228.38671875 24 M-228.38671875 24 C-111.85623688681846 24, 4.67424497636307 24, 228.38671875 24" stroke="#9370DB" stroke-width="1.3" fill="none" stroke-dasharray="0 0" style=""></path></g></g><g class="node default" id="classId-OpenAI-2" transform="translate(635.8984375, 466)"><g class="basic label-container"><path d="M-121.125 -63 L121.125 -63 L121.125 63 L-121.125 63" stroke="none" stroke-width="0" fill="#ECECFF" style=""></path><path d="M-121.125 -63 C-60.851111169462875 -63, -0.5772223389257505 -63, 121.125 -63 M-121.125 -63 C-69.40585275497068 -63, -17.686705509941362 -63, 121.125 -63 M121.125 -63 C121.125 -15.181785768411977, 121.125 32.636428463176046, 121.125 63 M121.125 -63 C121.125 -21.378931614119303, 121.125 20.242136771761395, 121.125 63 M121.125 63 C46.95204571197657 63, -27.220908576046867 63, -121.125 63 M121.125 63 C26.455045934279823 63, -68.21490813144035 63, -121.125 63 M-121.125 63 C-121.125 26.193180259580735, -121.125 -10.613639480838529, -121.125 -63 M-121.125 63 C-121.125 33.40096069548001, -121.125 3.8019213909600182, -121.125 -63" stroke="#9370DB" stroke-width="1.3" fill="none" stroke-dasharray="0 0" style=""></path></g><g class="annotation-group text" transform="translate(0, -39)"></g><g class="label-group text" transform="translate(-26.40625, -39)"><g class="label" style="font-weight: bolder" transform="translate(0,-12)"><foreignObject width="52.8125" height="24"><div xmlns="http://www.w3.org/1999/xhtml" style="display: table-cell; white-space: nowrap; line-height: 1.5; max-width: 103px; text-align: center;"><span class="nodeLabel markdown-node-label" style=""><p>OpenAI</p></span></div></foreignObject></g></g><g class="members-group text" transform="translate(-109.125, 9)"></g><g class="methods-group text" transform="translate(-109.125, 39)"><g class="label" style="" transform="translate(0,-12)"><foreignObject width="191.84375" height="24"><div xmlns="http://www.w3.org/1999/xhtml" style="display: table-cell; white-space: nowrap; line-height: 1.5; max-width: 249px; text-align: center;"><span class="nodeLabel markdown-node-label" style=""><p>+chat.completions.create()</p></span></div></foreignObject></g></g><g class="divider" style=""><path d="M-121.125 -15 C-66.05795875085553 -15, -10.990917501711081 -15, 121.125 -15 M-121.125 -15 C-49.072429998942965 -15, 22.98014000211407 -15, 121.125 -15" stroke="#9370DB" stroke-width="1.3" fill="none" stroke-dasharray="0 0" style=""></path></g><g class="divider" style=""><path d="M-121.125 9 C-68.8124795356096 9, -16.499959071219195 9, 121.125 9 M-121.125 9 C-69.9121915337262 9, -18.699383067452388 9, 121.125 9" stroke="#9370DB" stroke-width="1.3" fill="none" stroke-dasharray="0 0" style=""></path></g></g></g></g></g></svg>